<?xml version="1.0" encoding="utf-8"?>
<svg version="1.1" xmlns:xlink="http://www.w3.org/1999/xlink" width="12px" height="12px" viewBox="260 985.5  12 12" xmlns="http://www.w3.org/2000/svg">
  <path d="M 266 985.5  C 269.36 985.5  272 988.14  272 991.5  C 272 994.86  269.36 997.5  266 997.5  C 262.64 997.5  260 994.86  260 991.5  C 260 988.14  262.64 985.5  266 985.5  Z " fill-rule="nonzero" fill="#f0f0f0" stroke="none" />
  <path d="M 266 986  C 269.08 986  271.5 988.42  271.5 991.5  C 271.5 994.58  269.08 997  266 997  C 262.92 997  260.5 994.58  260.5 991.5  C 260.5 988.42  262.92 986  266 986  Z " stroke-width="1" stroke="#797979" fill="none" />
  <path d="M 266 994.5  C 264.32 994.5  263 993.18  263 991.5  C 263 989.82  264.32 988.5  266 988.5  C 267.68 988.5  269 989.82  269 991.5  C 269 993.18  267.68 994.5  266 994.5  " fill-rule="nonzero" fill="#797979" stroke="none" />
</svg>