<?xml version="1.0" encoding="utf-8"?>
<svg version="1.1" xmlns:xlink="http://www.w3.org/1999/xlink" width="12px" height="12px" viewBox="-1456 3508.5  12 12" xmlns="http://www.w3.org/2000/svg">
  <path d="M -1450 3508.5  C -1446.64 3508.5  -1444 3511.14  -1444 3514.5  C -1444 3517.86  -1446.64 3520.5  -1450 3520.5  C -1453.36 3520.5  -1456 3517.86  -1456 3514.5  C -1456 3511.14  -1453.36 3508.5  -1450 3508.5  Z " fill-rule="nonzero" fill="#f0f0f0" stroke="none" />
  <path d="M -1450 3509  C -1446.92 3509  -1444.5 3511.42  -1444.5 3514.5  C -1444.5 3517.58  -1446.92 3520  -1450 3520  C -1453.08 3520  -1455.5 3517.58  -1455.5 3514.5  C -1455.5 3511.42  -1453.08 3509  -1450 3509  Z " stroke-width="1" stroke="#797979" fill="none" />
  <path d="M -1450 3517.5  C -1451.68 3517.5  -1453 3516.18  -1453 3514.5  C -1453 3512.82  -1451.68 3511.5  -1450 3511.5  C -1448.32 3511.5  -1447 3512.82  -1447 3514.5  C -1447 3516.18  -1448.32 3517.5  -1450 3517.5  " fill-rule="nonzero" fill="#797979" stroke="none" />
</svg>