<?xml version="1.0" encoding="utf-8"?>
<svg version="1.1" xmlns:xlink="http://www.w3.org/1999/xlink" width="12px" height="12px" viewBox="-1673 1714.5  12 12" xmlns="http://www.w3.org/2000/svg">
  <path d="M -1667 1714.5  C -1663.64 1714.5  -1661 1717.14  -1661 1720.5  C -1661 1723.86  -1663.64 1726.5  -1667 1726.5  C -1670.36 1726.5  -1673 1723.86  -1673 1720.5  C -1673 1717.14  -1670.36 1714.5  -1667 1714.5  Z " fill-rule="nonzero" fill="#ffffff" stroke="none" />
  <path d="M -1667 1715  C -1663.92 1715  -1661.5 1717.42  -1661.5 1720.5  C -1661.5 1723.58  -1663.92 1726  -1667 1726  C -1670.08 1726  -1672.5 1723.58  -1672.5 1720.5  C -1672.5 1717.42  -1670.08 1715  -1667 1715  Z " stroke-width="1" stroke="#797979" fill="none" />
  <path d="M -1667 1723.5  C -1668.68 1723.5  -1670 1722.18  -1670 1720.5  C -1670 1718.82  -1668.68 1717.5  -1667 1717.5  C -1665.32 1717.5  -1664 1718.82  -1664 1720.5  C -1664 1722.18  -1665.32 1723.5  -1667 1723.5  " fill-rule="nonzero" fill="#797979" stroke="none" />
</svg>