<?xml version="1.0" encoding="utf-8"?>
<svg version="1.1" xmlns:xlink="http://www.w3.org/1999/xlink" width="12px" height="12px" viewBox="-1573 1714.5  12 12" xmlns="http://www.w3.org/2000/svg">
  <path d="M -1567 1714.5  C -1563.64 1714.5  -1561 1717.14  -1561 1720.5  C -1561 1723.86  -1563.64 1726.5  -1567 1726.5  C -1570.36 1726.5  -1573 1723.86  -1573 1720.5  C -1573 1717.14  -1570.36 1714.5  -1567 1714.5  Z " fill-rule="nonzero" fill="#ffffff" stroke="none" />
  <path d="M -1567 1715  C -1563.92 1715  -1561.5 1717.42  -1561.5 1720.5  C -1561.5 1723.58  -1563.92 1726  -1567 1726  C -1570.08 1726  -1572.5 1723.58  -1572.5 1720.5  C -1572.5 1717.42  -1570.08 1715  -1567 1715  Z " stroke-width="1" stroke="#797979" fill="none" />
  <path d="M -1567 1723.5  C -1568.68 1723.5  -1570 1722.18  -1570 1720.5  C -1570 1718.82  -1568.68 1717.5  -1567 1717.5  C -1565.32 1717.5  -1564 1718.82  -1564 1720.5  C -1564 1722.18  -1565.32 1723.5  -1567 1723.5  " fill-rule="nonzero" fill="#797979" stroke="none" />
</svg>