<?xml version="1.0" encoding="utf-8"?>
<svg version="1.1" xmlns:xlink="http://www.w3.org/1999/xlink" width="12px" height="12px" viewBox="160 995.5  12 12" xmlns="http://www.w3.org/2000/svg">
  <path d="M 166 995.5  C 169.36 995.5  172 998.14  172 1001.5  C 172 1004.86  169.36 1007.5  166 1007.5  C 162.64 1007.5  160 1004.86  160 1001.5  C 160 998.14  162.64 995.5  166 995.5  Z " fill-rule="nonzero" fill="#ffffff" stroke="none" />
  <path d="M 166 996  C 169.08 996  171.5 998.42  171.5 1001.5  C 171.5 1004.58  169.08 1007  166 1007  C 162.92 1007  160.5 1004.58  160.5 1001.5  C 160.5 998.42  162.92 996  166 996  Z " stroke-width="1" stroke="#797979" fill="none" />
  <path d="M 166 1004.5  C 164.32 1004.5  163 1003.18  163 1001.5  C 163 999.82  164.32 998.5  166 998.5  C 167.68 998.5  169 999.82  169 1001.5  C 169 1003.18  167.68 1004.5  166 1004.5  " fill-rule="nonzero" fill="#797979" stroke="none" />
</svg>