<?xml version="1.0" encoding="utf-8"?>
<svg version="1.1" xmlns:xlink="http://www.w3.org/1999/xlink" width="12px" height="12px" viewBox="260 995.5  12 12" xmlns="http://www.w3.org/2000/svg">
  <path d="M 266 995.5  C 269.36 995.5  272 998.14  272 1001.5  C 272 1004.86  269.36 1007.5  266 1007.5  C 262.64 1007.5  260 1004.86  260 1001.5  C 260 998.14  262.64 995.5  266 995.5  Z " fill-rule="nonzero" fill="#ffffff" stroke="none" />
  <path d="M 266 996  C 269.08 996  271.5 998.42  271.5 1001.5  C 271.5 1004.58  269.08 1007  266 1007  C 262.92 1007  260.5 1004.58  260.5 1001.5  C 260.5 998.42  262.92 996  266 996  Z " stroke-width="1" stroke="#797979" fill="none" />
  <path d="M 266 1004.5  C 264.32 1004.5  263 1003.18  263 1001.5  C 263 999.82  264.32 998.5  266 998.5  C 267.68 998.5  269 999.82  269 1001.5  C 269 1003.18  267.68 1004.5  266 1004.5  " fill-rule="nonzero" fill="#797979" stroke="none" />
</svg>