<?xml version="1.0" encoding="utf-8"?>
<svg version="1.1" xmlns:xlink="http://www.w3.org/1999/xlink" width="15px" height="15px" xmlns="http://www.w3.org/2000/svg">
  <g transform="matrix(1 0 0 1 -728 -1247 )">
    <path d="M 15 7.5  C 15 3.34875  11.65125 0  7.5 0  C 5.51749999511719 0  3.58875 0.776250000000001  2.19625000488281 2.19625000488281  C 0.77625 3.58875  0 5.51749999511719  0 7.5  C 0 11.65125  3.34875 15  7.5 15  C 11.65125 15  15 11.65125  15 7.5  Z M 10.66125 9.91125  C 10.90125 10.09875  10.90125 10.4462500048828  10.66125 10.66125  C 10.47375 10.84875  10.09875 10.84875  9.91125 10.66125  L 7.5 8.25  L 5.08875 10.66125  C 4.90125 10.84875  4.52625 10.84875  4.33875 10.66125  C 4.15111352085017 10.4464574483077  4.15111352085017 10.1260425516923  4.33875 9.91125  L 6.75 7.5  L 4.33875 5.08875  C 4.15111352085017 4.87395744830775  4.15111352085017 4.55354255169226  4.33875 4.33875  C 4.52625 4.15125  4.90125 4.15125  5.08875 4.33875  L 7.5 6.75  L 9.91125 4.33875  C 10.09875 4.15125  10.47375 4.15125  10.66125 4.33875  C 10.84875 4.52625  10.84875 4.90125  10.66125 5.08875  L 8.25 7.5  L 10.66125 9.91125  Z " fill-rule="nonzero" fill="#e01504" stroke="none" transform="matrix(1 0 0 1 728 1247 )" />
  </g>
</svg>