<?xml version="1.0" encoding="utf-8"?>
<svg version="1.1" xmlns:xlink="http://www.w3.org/1999/xlink" width="12px" height="12px" viewBox="260 2746.5  12 12" xmlns="http://www.w3.org/2000/svg">
  <path d="M 266 2746.5  C 269.36 2746.5  272 2749.14  272 2752.5  C 272 2755.86  269.36 2758.5  266 2758.5  C 262.64 2758.5  260 2755.86  260 2752.5  C 260 2749.14  262.64 2746.5  266 2746.5  Z " fill-rule="nonzero" fill="#ffffff" stroke="none" />
  <path d="M 266 2747  C 269.08 2747  271.5 2749.42  271.5 2752.5  C 271.5 2755.58  269.08 2758  266 2758  C 262.92 2758  260.5 2755.58  260.5 2752.5  C 260.5 2749.42  262.92 2747  266 2747  Z " stroke-width="1" stroke="#797979" fill="none" />
  <path d="M 266 2755.5  C 264.32 2755.5  263 2754.18  263 2752.5  C 263 2750.82  264.32 2749.5  266 2749.5  C 267.68 2749.5  269 2750.82  269 2752.5  C 269 2754.18  267.68 2755.5  266 2755.5  " fill-rule="nonzero" fill="#797979" stroke="none" />
</svg>