<?xml version="1.0" encoding="utf-8"?>
<svg version="1.1" xmlns:xlink="http://www.w3.org/1999/xlink" width="15px" height="15px" xmlns="http://www.w3.org/2000/svg">
  <g transform="matrix(1 0 0 1 -682 -2185 )">
    <path d="M 7.5 0  C 11.6999999999998 0  15 3.29999999999995  15 7.5  C 15 11.7  11.6999999999998 15  7.5 15  C 3.30000000000018 15  0 11.7  0 7.5  C 0 3.29999999999995  3.30000000000018 0  7.5 0  Z M 9.20710678118667 8.41421356237288  C 9.4050966799191 8.61220346110531  9.7162236636409 8.61220346110508  9.91421356237333 8.41421356237288  C 10.1122034611053 8.21622366364068  10.1122034611053 7.90509667991864  9.91421356237288 7.70710678118621  L 8.20708496429506 5.99997818310885  L 9.5 6  C 9.7800000000002 6  10 5.77999999999997  10 5.5  C 10 5.22000000000003  9.7800000000002 5  9.5 5  L 5.5 5  C 5.2199999999998 5  5 5.22000000000003  5 5.5  C 5 5.77999999999997  5.2199999999998 6  5.5 6  L 6.79290153433885 6  L 5.08578643762712 7.70710678118621  C 4.88779653889469 7.90509667991864  4.88779653889469 8.21622366364068  5.08578643762667 8.41421356237288  C 5.2837763363591 8.61220346110508  5.5949033200809 8.61220346110531  5.79289321881333 8.41421356237288  L 7.00000426727729 7.20710251390938  L 7 9.5  C 7 9.77999999999997  7.2199999999998 10  7.5 10  C 7.7800000000002 10  8 9.77999999999997  8 9.5  L 8 7.20708812914313  L 9.20710678118667 8.41421356237288  Z " fill-rule="nonzero" fill="#169bd5" stroke="none" transform="matrix(1 0 0 1 682 2185 )" />
  </g>
</svg>