<?xml version="1.0" encoding="utf-8"?>
<svg version="1.1" xmlns:xlink="http://www.w3.org/1999/xlink" width="15px" height="15px" xmlns="http://www.w3.org/2000/svg">
  <g transform="matrix(1 0 0 1 -716 -2185 )">
    <path d="M 7.5 0  C 11.6999999999998 0  15 3.29999999999995  15 7.5  C 15 11.7  11.6999999999998 15  7.5 15  C 3.30000000000018 15  0 11.7  0 7.5  C 0 3.29999999999995  3.30000000000018 0  7.5 0  Z M 5.79289321881333 6.58578643762712  C 5.5949033200809 6.38779653889469  5.2837763363591 6.38779653889492  5.08578643762667 6.58578643762712  C 4.88779653889469 6.78377633635932  4.88779653889469 7.09490332008136  5.08578643762712 7.29289321881379  L 6.79291503570494 9.00002181689115  L 5.5 9  C 5.2199999999998 9  5 9.22000000000003  5 9.5  C 5 9.77999999999997  5.2199999999998 10  5.5 10  L 9.5 10  C 9.7800000000002 10  10 9.77999999999997  10 9.5  C 10 9.22000000000003  9.7800000000002 9  9.5 9  L 8.20709846566115 9  L 9.91421356237288 7.29289321881379  C 10.1122034611053 7.09490332008136  10.1122034611053 6.78377633635932  9.91421356237333 6.58578643762712  C 9.7162236636409 6.38779653889492  9.4050966799191 6.38779653889469  9.20710678118667 6.58578643762712  L 7.99999573272271 7.79289748609062  L 8 5.5  C 8 5.22000000000003  7.7800000000002 5  7.5 5  C 7.2199999999998 5  7 5.22000000000003  7 5.5  L 7 7.79291187085687  L 5.79289321881333 6.58578643762712  Z " fill-rule="nonzero" fill="#169bd5" stroke="none" transform="matrix(1 0 0 1 716 2185 )" />
  </g>
</svg>