<?xml version="1.0" encoding="utf-8"?>
<svg version="1.1" xmlns:xlink="http://www.w3.org/1999/xlink" width="12px" height="12px" viewBox="-813 1723.5  12 12" xmlns="http://www.w3.org/2000/svg">
  <path d="M -807 1723.5  C -803.64 1723.5  -801 1726.14  -801 1729.5  C -801 1732.86  -803.64 1735.5  -807 1735.5  C -810.36 1735.5  -813 1732.86  -813 1729.5  C -813 1726.14  -810.36 1723.5  -807 1723.5  Z " fill-rule="nonzero" fill="#ffffff" stroke="none" />
  <path d="M -807 1724  C -803.92 1724  -801.5 1726.42  -801.5 1729.5  C -801.5 1732.58  -803.92 1735  -807 1735  C -810.08 1735  -812.5 1732.58  -812.5 1729.5  C -812.5 1726.42  -810.08 1724  -807 1724  Z " stroke-width="1" stroke="#797979" fill="none" />
  <path d="M -807 1732.5  C -808.68 1732.5  -810 1731.18  -810 1729.5  C -810 1727.82  -808.68 1726.5  -807 1726.5  C -805.32 1726.5  -804 1727.82  -804 1729.5  C -804 1731.18  -805.32 1732.5  -807 1732.5  " fill-rule="nonzero" fill="#797979" stroke="none" />
</svg>