<?xml version="1.0" encoding="utf-8"?>
<svg version="1.1" xmlns:xlink="http://www.w3.org/1999/xlink" width="12px" height="12px" viewBox="-713 1723.5  12 12" xmlns="http://www.w3.org/2000/svg">
  <path d="M -707 1723.5  C -703.64 1723.5  -701 1726.14  -701 1729.5  C -701 1732.86  -703.64 1735.5  -707 1735.5  C -710.36 1735.5  -713 1732.86  -713 1729.5  C -713 1726.14  -710.36 1723.5  -707 1723.5  Z " fill-rule="nonzero" fill="#ffffff" stroke="none" />
  <path d="M -707 1724  C -703.92 1724  -701.5 1726.42  -701.5 1729.5  C -701.5 1732.58  -703.92 1735  -707 1735  C -710.08 1735  -712.5 1732.58  -712.5 1729.5  C -712.5 1726.42  -710.08 1724  -707 1724  Z " stroke-width="1" stroke="#797979" fill="none" />
  <path d="M -707 1732.5  C -708.68 1732.5  -710 1731.18  -710 1729.5  C -710 1727.82  -708.68 1726.5  -707 1726.5  C -705.32 1726.5  -704 1727.82  -704 1729.5  C -704 1731.18  -705.32 1732.5  -707 1732.5  " fill-rule="nonzero" fill="#797979" stroke="none" />
</svg>