<?xml version="1.0" encoding="utf-8"?>
<svg version="1.1" xmlns:xlink="http://www.w3.org/1999/xlink" width="9px" height="5px" xmlns="http://www.w3.org/2000/svg">
  <g transform="matrix(1 0 0 1 -220 -52 )">
    <path d="M 0.848920579156676 0.153312210170004  L 4.50000046965974 3.66973024629616  L 8.15107942084333 0.153312210170026  C 8.37144837023373 -0.0589289817076122  8.6898830123062 -0.0269519730341017  8.8747945164626 0.22598722988254  C 9.059706020619 0.478926432799192  9.03184659936372 0.844425314423261  8.81147764997333 1.05666650630089  L 4.87631783943064 4.84668778983002  C 4.76580522193623 4.95312442584165  4.63062993803554 4.99814231442183  4.50000000001342 4.98467450599253  C 4.36937006196439 4.99814231442179  4.23419477806375 4.9531244258416  4.12368216056936 4.84668778983  L 0.18852235002667 1.05666650630088  C -0.0318465993637234 0.84442531442324  -0.0597060206190011 0.478926432799171  0.125205483537402 0.225987229882518  C 0.310116987693805 -0.0269519730341231  0.628551629766282 -0.0589289817076337  0.848920579156676 0.153312210170004  Z " fill-rule="nonzero" fill="#333333" stroke="none" transform="matrix(1 0 0 1 220 52 )" />
  </g>
</svg>