<?xml version="1.0" encoding="utf-8"?>
<svg version="1.1" xmlns:xlink="http://www.w3.org/1999/xlink" width="28px" height="50px" xmlns="http://www.w3.org/2000/svg">
  <g transform="matrix(1 0 0 1 -558 -194 )">
    <path d="M 27.16 40.2  C 27.16 32.6  22.68 26.04  16.2 23.04  C 19.04 20.76  20.84 17.24  20.84 13.32  C 20.84 6.4  15.24 0.759999999999998  8.28 0.759999999999998  C 6.88000000000001 0.759999999999998  5.52000000000001 0.999999999999998  4.24000000000001 1.44  C 4.92 3.48  5.32 5.68  5.32 7.96  C 5.32 12.64  3.72 17.12  0.839999999999996 20.72  C 9 26.04  14.08 35.24  14.08 45.12  C 14.08 46.56  13.96 47.84  13.76 49.08  C 21.52 49.2  27.16 48.72  27.16 40.2  Z " fill-rule="nonzero" fill="#ffffff" stroke="none" transform="matrix(1 0 0 1 558 194 )" />
  </g>
</svg>