<?xml version="1.0" encoding="utf-8"?>
<svg version="1.1" xmlns:xlink="http://www.w3.org/1999/xlink" width="54px" height="68px" xmlns="http://www.w3.org/2000/svg">
  <g transform="matrix(1 0 0 1 584 -183 )">
    <path d="M 53 55.16  C 53.04 46.12  48.48 38.2  41.52 33.48  C 40.36 32.68  39.12 32  37.84 31.4  C 38.44 30.92  39 30.36  39.56 29.8  C 42.48 26.68  44.28 22.52  44.28 17.92  C 44.28 16.12  44 14.4  43.48 12.76  C 41.28 5.72  34.72 0.600000000000001  26.92 0.600000000000001  C 17.36 0.600000000000001  9.56 8.36  9.56 17.96  C 9.56 23.4  12.08 28.24  16 31.44  C 7.04 35.56  0.840000000000001 44.64  0.840000000000001 55.16  C 0.840000000000001 66.12  7.6 67.44  17.2 67.44  C 20.2 67.44  23.48 67.32  26.92 67.32  C 30.36 67.32  33.64 67.44  36.64 67.44  C 44.96 67.44  51.16 66.44  52.64 59.04  C 52.88 57.88  53 56.6  53 55.16  Z " fill-rule="nonzero" fill="#ffffff" stroke="none" transform="matrix(1 0 0 1 -584 183 )" />
  </g>
</svg>