<?xml version="1.0" encoding="utf-8"?>
<svg version="1.1" xmlns:xlink="http://www.w3.org/1999/xlink" width="57px" height="37px" xmlns="http://www.w3.org/2000/svg">
  <g transform="matrix(1 0 0 1 -300 -595 )">
    <path d="M 56.12 27.32  C 56.12 12.72  43.6 0.800000000000004  28.12 0.799999999999997  C 12.68 0.799999999999997  0.119999999999997 12.68  0.119999999999997 27.32  C 0.119999999999997 41.96  12.64 35.04  28.12 35.04  C 43.56 35.04  56.12 41.92  56.12 27.32  Z M 32.84 15.76  C 33.04 16.12  32.96 16.56  32.72 16.92  L 29.04 21.88  C 28.8133747416002 22.1821670111997  28.4577087639996 22.36  28.08 22.36  C 27.7022912360003 22.36  27.3466252583998 22.1821670111997  27.12 21.88  L 23.52 17.04  C 23.28 16.72  23.2 16.28  23.36 15.88  L 26.2 8.84  C 25.6894947307125 8.33126244954942  25.4017655562654 7.64071243087644  25.4 6.92  C 25.4 5.40000000000001  26.64 4.16  28.16 4.16  C 29.68 4.16  30.92 5.40000000000001  30.92 6.92  C 30.92 7.72000000000001  30.6 8.44  30.04 8.92  L 32.84 15.76  Z " fill-rule="nonzero" fill="#ffffff" stroke="none" transform="matrix(1 0 0 1 300 595 )" />
  </g>
</svg>