<?xml version="1.0" encoding="utf-8"?>
<svg version="1.1" xmlns:xlink="http://www.w3.org/1999/xlink" width="66px" height="66px" xmlns="http://www.w3.org/2000/svg">
  <g transform="matrix(1 0 0 1 872 -1246 )">
    <path d="M 61.921666640625 12.925  L 51.841666640625 8.273333359375  L 20.016666640625 23.796666640625  L 20.016666640625 33.78  L 14.46 31.22  L 14.46 21.241666640625  L 46.293333359375 5.71  L 35.605 0.771666640625002  C 33.9355401048396 0.106192495372716  32.0744598951604 0.106192495372716  30.405 0.771666640625002  L 4.071666640625 12.925  C 1.81643038090661 14.1418740042245  0.371568141396429 16.4593569910178  1 19.02  L 1 47.51  C 0.452911665718895 50.0892280259928  1.93203646693262 52.4120252940008  4.22 53.608333359375  L 30.475 65.266666640625  C 32.0969626280689 65.8849638238915  33.8897040125561 65.8849638238915  35.511666640625 65.266666640625  L 61.771666640625 53.608333359375  C 64.0625070351918 52.4151610057855  65.5428132273194 50.0905084977161  65 47.51  L 65 19.018333359375  C 65.6155556908895 16.4599682651087  64.1726768648759 14.1452842044311  61.921666640625 12.925  Z M 59.783333359375 31.078333359375  L 59.771666640625 31.081666640625  L 58 31.823333359375  L 58 43.081666640625  C 58.1410873320926 43.6522324404671  57.7857335659485 44.149474351297  57.265 44.39  L 54.96 45.426666640625  C 54.46 45.651666640625  54.043333359375 45.445  54 44.953333359375  L 54 33.84  L 52.551666640625 34.556666640625  C 51.85 34.89  51.41 34.36333328125  51.758333359375 33.6  L 55.325 25.788333359375  C 55.681666640625 25  56.59 24.548333359375  56.95 24.97  L 60.616666640625 29.303333359375  C 60.98 29.74  60.515 30.72166671875  59.783333359375 31.078333359375  Z M 44 49.16  L 44.715 49.153333359375  C 44.674376114469 49.6913941812428  44.3478858503641 50.1661733758226  43.86 50.396666640625  L 41.715 51.353333359375  C 41.25 51.565  40.868333359375 51.353333359375  40.86 50.888333359375  L 40.733333359375 40.248333359375  L 39.351666640625 40.915  C 38.7 41.228333359375  38.286666640625 40.715  38.606666640625 39.988333359375  L 41.843333359375 32.56  C 42.17666671875 31.811666640625  43.01 31.393333359375  43.343333359375 31.803333359375  L 46.798333359375 36.003333359375  C 47.14 36.42166671875  46.718333359375 37.36  46.041666640625 37.683333359375  L 44 38.381666640625  L 44 49.16  Z M 62.331666640625 46.061666640625  L 62.326666640625 46.07  C 62.2929536597178 46.3575396508874  62.1106977156454 46.6062430745696  61.846666640625 46.725  L 37.416666640625 57.38  C 37.18333328125 57.478333359375  36.99833328125 57.38  36.995 57.146666640625  L 36.973333359375 55.906666640625  C 36.9913905058572 55.6475566101871  37.1491761823655 55.4188631960256  37.385 55.31  L 61.858333359375 44.476666640625  C 62.123333359375 44.36833328125  62.33166671875 44.476666640625  62.331666640625 44.716666640625  L 62.331666640625 46.061666640625  Z " fill-rule="nonzero" fill="#ffffff" stroke="none" transform="matrix(1 0 0 1 -872 1246 )" />
  </g>
</svg>