<?xml version="1.0" encoding="utf-8"?>
<svg version="1.1" xmlns:xlink="http://www.w3.org/1999/xlink" width="58px" height="29px" xmlns="http://www.w3.org/2000/svg">
  <g transform="matrix(1 0 0 1 -522 -479 )">
    <path d="M 57 3.328125  C 51.240625 5.68750000000001  45.21796875 4.34453125  41.0140625 0.537500000000001  C 40.48828125 0.0640625000000057  39.5765625 0.0289062499999986  39.05078125 0.502343750000009  C 36.2477085939868 3.03810272157676  32.6040680771561 4.44462033284835  28.82421875 4.45  C 25.0373269304312 4.44063281606313  21.3903562253369 3.01778488703971  18.59765625 0.46015624999999  C 18.05546875 -0.0140625000000156  17.24609375 -0.0140625000000156  16.7046875 0.46015624999999  C 12.6796875 4.0890625  7.0390625 5.46640624999999  1.4015625 3.54531249999999  C 1.15625 3.47187499999998  0.805468750000001 3.36328124999999  1 3.28906249999999  L 1 21.46640625  C 0.805468750000001 25.6734375  3.92578125 28.28515625  7.98515625 28  L 49.7328125 28  C 53.79921875 28.28515625  57.19296875 25.6734375  57 21.46640625  L 57 3.328125  Z M 18 22.19609375  L 18.0375 22.19609375  C 18.0375 22.88359375  16.77578125 23.39140625  15.34140625 23.39140625  C 13.90390625 23.39140625  12.6421875 22.84765625  13 22.19609375  L 13 7.89921875  C 12.6421875 7.21171875  13.90390625 6.70390625  15.34140625 6.70390625  C 16.77890625 6.70390625  18.040625 7.24765625000001  18 7.89921875  L 18 22.19609375  Z " fill-rule="nonzero" fill="#ffffff" stroke="none" transform="matrix(1 0 0 1 522 479 )" />
  </g>
</svg>