<?xml version="1.0" encoding="utf-8"?>
<svg version="1.1" xmlns:xlink="http://www.w3.org/1999/xlink" width="72px" height="41px" xmlns="http://www.w3.org/2000/svg">
  <g transform="matrix(1 0 0 1 585 -439 )">
    <path d="M 70.6359375 24.18828125  L 70.6328125 24.1890625  C 70.84296875 25.05859375  70.98359375 25.89296875  71.01875 26.80078125  C 71.2640625 32.8234375  66.503125 39.09921875  60.7921875 40.228125  C 55.75078125 41.20625  51.09140625 39.02890625  48.32578125 35.2921875  C 47.8546875 34.653125  46.9546875 34.5171875  46.315625 34.98828125  C 46.2 35.0734375  46.096875 35.1765625  46.01171875 35.2921875  C 43.6758499128245 38.4924749458185  39.9573669751711 40.3913055980934  35.9953125 40.40703125  C 32.0328125 40.38984375  28.3140625 38.48984375  25.97890625 35.28828125  C 25.49140625 34.64921875  24.57890625 34.5265625  23.93984375 35.01328125  C 23.8362852966204 35.0922302793866  23.7437927793866 35.1847227966204  23.66484375 35.28828125  C 20.7234375 39.28515625  15.61171875 41.45859375  10.14609375 39.93359375  C 4.65234374999999 38.3734375  0.971093749999993 33.18515625  0.971093749999993 27.27421875  C 0.971093749999993 26.22265625  1.07656249999999 25.3109375  1.35703124999999 24.22421875  L 1.49687499999999 23.82421875  L 10.6015625 4.1984375  C 11.5828125 2.06015625  13.68671875 0.71328125  15.96171875 1  L 55.890625 1  C 58.16953125 0.71328125  60.23046875 2.09140625  61.24765625 4.1984375  L 70.49609375 23.75390625  L 70.6359375 24.18828125  Z " fill-rule="nonzero" fill="#ffffff" stroke="none" transform="matrix(1 0 0 1 -585 439 )" />
  </g>
</svg>