<?xml version="1.0" encoding="utf-8"?>
<svg version="1.1" xmlns:xlink="http://www.w3.org/1999/xlink" width="12px" height="12px" xmlns="http://www.w3.org/2000/svg">
  <g transform="matrix(1 0 0 1 -514 -520 )">
    <path d="M 4.12307691706731 7.375  L 4.08461538461539 7.40416666015625  C 4.0336508614226 7.43305388785369  3.97673152747192 7.44739403513046  3.91923077524039 7.44583333984375  C 3.792946088902 7.44397714586271  3.67714835397474 7.36934379608007  3.615384609375 7.25  L 3.58846153846154 7.19583333984375  L 2.57692307091346 4.80833333984375  C 2.57128147311349 4.78089173916641  2.57128147311349 4.75244160067734  2.57692307091346 4.725  C 2.57689457452649 4.72359588283955  2.57688032504197 4.72219146877217  2.57688032504197 4.72078701228505  C 2.57688032504197 4.61493243882975  2.65609148199669 4.5291203521288  2.75380339595543 4.5291203521288  C 2.75509981732812 4.5291203521288  2.75639619954423 4.52913578907037  2.75769230769231 4.52916666015625  C 2.79761263836605 4.5321587026903  2.83609277820961 4.54653347129201  2.86923077524038 4.57083333984375  L 4.06153846153846 5.4875  C 4.15471786201072 5.54775525777963  4.26073911188206 5.58077646116082  4.36923077524038 5.58333333984375  C 4.43523376573691 5.58322418511871  4.50057386863862 5.56906715751446  4.56153845552885 5.54166666015625  L 10.1153846213942 2.8375  C 8.96274682275142 1.4575912186983  7.31359815899897 0.688222429390759  5.59615384615385 0.729166660156253  C 2.55 0.729166660156253  0.0653846213942324 2.9625  0.0653846213942324 5.72916666015625  C 0.106880909964194 7.24873634605094  0.823088686770632 8.65310043960749  1.98846153245192 9.5  C 2.08213197855213 9.57601601566861  2.13875617216895 9.69410104594451  2.14230769831731 9.82083333984375  C 2.14070344013947 9.8639684612857  2.13156789482594 9.90638347416326  2.115384609375 9.94583333984375  C 2.02692306490385 10.3166666796875  1.87307691706731 10.9291666796875  1.87307691706731 10.9541666601563  C 1.85568118967628 11.0034029529424  1.8465629821583 11.0556155620563  1.84615384615385 11.1083333398437  C 1.84612535003125 11.1097374504936  1.84611110067893 11.1111418580462  1.84611110067893 11.112546308018  C 1.84611110067893 11.2184008814733  1.92532225763365 11.3042129681742  2.02303417159239 11.3042129681742  C 2.02433059283281 11.3042129681742  2.0256269749168 11.3041975312358  2.02692308293269 11.3041666601562  C 2.06421966904679 11.3063873407947  2.10061262324287 11.2912236104265  2.12692307091346 11.2625  L 3.33076923677885 10.5  C 3.42042275516552 10.4414498511566  3.52231468421006 10.4084783250847  3.62692307091346 10.4041666601562  C 3.68269575848969 10.4063465051928  3.73811450997004 10.4147237577148  3.79230769831731 10.4291666601563  C 4.37831065794033 10.6145039043803  4.9856884556372 10.7085028539594  5.59615384615385 10.7083333398437  C 8.64230769230769 10.7083333398437  11.1269230709135 8.475  11.1269230709135 5.70833333984375  C 11.1220290122559 4.88779493433528  10.904831713435 4.08518649888017  10.5 3.39166666015625  L 4.12307691706731 7.375  Z " fill-rule="nonzero" fill="#ffffff" stroke="none" transform="matrix(1 0 0 1 514 520 )" />
  </g>
</svg>