<?xml version="1.0" encoding="utf-8"?>
<svg version="1.1" xmlns:xlink="http://www.w3.org/1999/xlink" width="14px" height="12px" xmlns="http://www.w3.org/2000/svg">
  <g transform="matrix(1 0 0 1 -513 -460 )">
    <path d="M 13.16875 9.125  C 12.55625 9.075  10.325 8.2  8.728125 7.575  C 9.58125 5.825  9.8875 4.15  9.8875 4.15  L 7.04375 4.15  L 7.04375 2.975  L 10.390625 2.975  L 10.390625 2.45  L 7.065625 2.45  L 7.065625 0.600000000000001  L 5.534375 0.600000000000001  L 5.534375 2.45  L 2.471875 2.45  L 2.471875 2.975  L 5.5125 2.975  L 5.5125 4.2  L 2.8875 4.2  L 2.8875 4.725  L 8.159375 4.725  C 8.159375 4.825  8.159375 4.825  8.071875 4.9  C 8.071875 5.525  7.678125 6.4  7.371875 7.1  C 3.45625 5.35  2.340625 6.4  2.034375 6.575  C -0.546875 8.65  1.903125 11.25  2.296875 11.2  C 5.053125 11.9  6.803125 10.575  8.028125 8.925  C 8.115625 9.025  8.18125 9.025  8.26875 9.025  C 9.121875 9.55  13.16875 11.75  13.16875 11.75  L 13.16875 9.125  Z M 6.9125 8.125  C 6.803125 8.275  6.759375 8.375  6.759375 8.375  C 4.834375 11.175  2.5375 10.3  2.1875 10.125  C 1.26875 9.85  0.9625 7.925  2.1 7.325  C 4.025 6.625  5.709375 7.425  6.9125 8.125  Z " fill-rule="nonzero" fill="#ffffff" stroke="none" transform="matrix(1 0 0 1 513 460 )" />
  </g>
</svg>